HIERARCHY
ROOT Hips
{
	OFFSET -3.958830 18.904000 13.208200
	CHANNELS 6 Xposition Yposition Zposition Zrotation Yrotation Xrotation 
	JOINT LHipJoint
	{
		OFFSET 0.000000 0.000000 0.000000
		CHANNELS 3 Zrotation Yrotation Xrotation
		JOINT LeftUpLeg
		{
			OFFSET 1.800000 -1.400000 0.085000
			CHANNELS 3 Zrotation Yrotation Xrotation
			JOINT LeftLeg
			{
				OFFSET 2.215000 -6.000000 0.000000
				CHANNELS 3 Zrotation Yrotation Xrotation
				JOINT LeftFoot
				{
					OFFSET 2.500000 -6.900000 0.000000
					CHANNELS 3 Zrotation Yrotation Xrotation
					JOINT LeftToeBase
					{
						OFFSET 0.200000 -0.500000 1.950000
						CHANNELS 3 Zrotation Yrotation Xrotation
						End Site
						{
							OFFSET 0.000000 0.000000 0.000000
						}
					}
				}
			}
		}
	}
	JOINT RHipJoint
	{
		OFFSET 0.000000 0.000000 0.000000
		CHANNELS 3 Zrotation Yrotation Xrotation
		JOINT RightUpLeg
		{
			OFFSET -1.800000 -1.400000 0.085000
			CHANNELS 3 Zrotation Yrotation Xrotation
			JOINT RightLeg
			{
				OFFSET -2.215000 -6.000000 0.000000
				CHANNELS 3 Zrotation Yrotation Xrotation
				JOINT RightFoot
				{
					OFFSET -2.500000 -6.900000 0.000000
					CHANNELS 3 Zrotation Yrotation Xrotation
					JOINT RightToeBase
					{
						OFFSET -0.200000 -0.500000 1.950000
						CHANNELS 3 Zrotation Yrotation Xrotation
						End Site
						{
							OFFSET 0.000000 0.000000 0.000000
						}
					}
				}
			}
		}
	}
	JOINT LowerBack
	{
		OFFSET 0.000000 0.000000 0.000000
		CHANNELS 3 Zrotation Yrotation Xrotation
		JOINT Spine
		{
			OFFSET -0.087000 1.940000 -0.288900
			CHANNELS 3 Zrotation Yrotation Xrotation
			JOINT Spine1
			{
				OFFSET 0.000000 1.950000 0.060000
				CHANNELS 3 Zrotation Yrotation Xrotation
				JOINT Neck
				{
					OFFSET 0.000000 0.000000 0.000000
					CHANNELS 3 Zrotation Yrotation Xrotation
					JOINT Neck1
					{
						OFFSET 0.000000 1.600000 0.340000
						CHANNELS 3 Zrotation Yrotation Xrotation
						JOINT Head
						{
							OFFSET 0.000000 1.667000 -0.240000
							CHANNELS 3 Zrotation Yrotation Xrotation
							End Site
							{
								OFFSET 0.000000 0.000000 0.000000
							}
						}
					}
				}
				JOINT LeftShoulder
				{
					OFFSET 0.000000 0.000000 0.000000
					CHANNELS 3 Zrotation Yrotation Xrotation
					JOINT LeftArm
					{
						OFFSET 2.700000 1.550000 -0.730000
						CHANNELS 3 Zrotation Yrotation Xrotation
						JOINT LeftForeArm
						{
							OFFSET 5.450000 0.000000 0.000000
							CHANNELS 3 Zrotation Yrotation Xrotation
							JOINT LeftHand
							{
								OFFSET 3.450000 0.000000 0.000000
								CHANNELS 3 Zrotation Yrotation Xrotation
								JOINT LeftHandIndex1
								{
									OFFSET 0.750000 0.000000 0.000000
									CHANNELS 3 Zrotation Yrotation Xrotation
									End Site
									{
										OFFSET 0.000000 0.000000 0.000000
									}
								}
							}
						}
					}
				}
				JOINT RightShoulder
				{
					OFFSET 0.000000 0.000000 0.000000
					CHANNELS 3 Zrotation Yrotation Xrotation
					JOINT RightArm
					{
						OFFSET -2.700000 1.550000 -0.730000
						CHANNELS 3 Zrotation Yrotation Xrotation
						JOINT RightForeArm
						{
							OFFSET -5.450000 0.000000 0.000000
							CHANNELS 3 Zrotation Yrotation Xrotation
							JOINT RightHand
							{
								OFFSET -3.450000 0.000000 0.000000
								CHANNELS 3 Zrotation Yrotation Xrotation
								JOINT RightHandIndex1
								{
									OFFSET -0.750000 0.000000 0.000000
									CHANNELS 3 Zrotation Yrotation Xrotation
									End Site
									{
										OFFSET 0.000000 0.000000 0.000000
									}
								}
							}
						}
					}
				}
			}
		}
	}
}
MOTION
Frames: 9
Frame Time: 0.016667
-2.016330 18.240670 2.638470 -4.834241 27.194414 -7.444266 -15.034418 13.574902 1.884437 8.471607 0.345568 -8.178111 1.925320 5.617146 24.167529 -1.348069 6.129293 2.896140 -0.642590 -0.897530 -1.193120 18.356183 -11.501001 2.930849 -2.268169 3.231949 -16.800204 7.410510 -6.371440 20.343157 0.314844 -4.435477 3.142530 0.025160 1.951450 0.113590 -4.793638 -0.334483 -6.939897 16.567871 -7.468074 18.521397 -18.068883 -0.543107 21.509498 7.795079 -7.441171 -8.042359 -12.494045 1.565803 27.051268 3.371070 -10.517300 -2.831880 5.327676 -11.233862 8.091940 -22.275095 -20.888342 5.065128 139.257548 -30.209225 -93.677058 -4.951197 2.409343 0.335990 1.001780 -1.077970 0.262230 -19.547898 15.627594 -2.235953 -21.846624 33.665524 -7.352642 -19.812468 14.779023 -3.502210 1.440348 -1.221910 -1.084050 1.230120 1.196450 0.125010 
-2.019510 18.244810 2.633660 -4.592544 27.224727 -7.421328 -15.052686 13.611002 1.908322 8.431163 0.326803 -7.930399 1.749099 5.668203 24.161016 -1.319549 6.135934 2.890533 -0.620800 -0.873140 -1.159860 18.333178 -11.480762 2.911126 -2.532147 3.066371 -16.630758 7.473160 -6.360239 19.961459 0.298361 -4.396776 3.149733 0.022570 1.920780 0.126000 -4.729304 -0.457892 -6.951040 16.005407 -7.496069 18.651319 -17.757168 -0.664857 21.771012 7.798136 -7.142259 -8.158909 -12.111629 1.494521 27.572971 3.083220 -10.273960 -3.035430 6.056186 -11.749986 8.005924 -21.149295 -21.186223 4.250938 137.470992 -30.769061 -91.659515 -4.931932 2.398907 0.342980 0.987190 -1.046610 0.262930 -20.248742 15.912024 -1.937059 -21.283507 33.158804 -7.276949 -20.801072 14.627911 -3.718311 1.459609 -1.237408 -1.059970 1.213460 1.173070 0.121990 
-2.027600 18.249260 2.620030 -4.370827 27.180166 -7.688829 -15.085521 13.679551 1.937436 8.684117 0.323202 -7.375197 1.396204 5.840982 24.329104 -1.304776 6.225576 2.848056 -0.608290 -0.846860 -1.138040 18.293641 -11.435263 2.881689 -2.923010 2.837958 -16.230033 7.756276 -6.426636 19.612543 0.295688 -4.405126 3.142331 0.039220 1.897500 0.120340 -4.611923 -0.675869 -6.966539 15.175411 -7.659704 19.357290 -17.093899 -1.029173 22.088095 7.765215 -6.891966 -8.042917 -11.699960 1.538682 27.586129 2.547120 -9.880250 -3.229590 7.179293 -12.020687 7.515294 -19.373455 -21.948813 3.042553 133.845740 -31.921448 -87.639348 -4.930753 2.369763 0.336220 0.985970 -1.038540 0.250440 -21.248034 15.951866 -1.657836 -20.548120 32.530340 -7.448496 -23.006022 15.442038 -4.369946 1.455258 -1.278538 -1.054240 1.207860 1.164040 0.112470 
-2.035050 18.249760 2.601780 -4.245775 26.869440 -7.785410 -15.116784 13.747412 1.965897 9.085183 0.323128 -6.800144 0.889008 6.068987 24.405817 -1.275007 6.335056 2.797729 -0.604030 -0.828620 -1.134590 18.259822 -11.367240 2.859632 -3.075629 2.742163 -16.241173 7.865301 -6.478035 19.652217 0.303150 -4.423707 3.129216 0.051080 1.887900 0.132180 -4.488001 -0.922434 -6.978908 14.501286 -7.675843 19.794103 -16.072416 -1.403609 22.283725 7.472161 -6.590211 -7.903737 -11.267861 1.680210 27.662980 1.922920 -9.451930 -2.760190 8.856146 -12.382155 6.948071 -17.378932 -23.382267 1.860476 128.087105 -33.372709 -81.178702 -4.948083 2.347580 0.306320 1.003080 -1.040670 0.242670 -22.341444 16.002291 -1.362182 -19.568249 31.917696 -7.806057 -26.578171 16.931084 -5.509024 1.447612 -1.354281 -1.036760 1.184130 1.161080 0.113070 
-2.038980 18.241950 2.578520 -4.183650 26.339671 -7.774720 -15.144006 13.796359 1.991116 9.577619 0.307890 -6.202989 0.284242 6.346351 24.605524 -1.240939 6.473527 2.742293 -0.576400 -0.777680 -1.127500 18.233222 -11.295698 2.845851 -3.160752 2.727259 -16.562366 8.040944 -6.560096 19.925898 0.294444 -4.463212 3.100498 0.082270 1.883480 0.157890 -4.370384 -1.127881 -6.990709 13.778928 -7.491082 20.183970 -14.478649 -1.781285 22.325271 6.871973 -6.049947 -7.541161 -10.370014 1.828789 27.609236 1.254570 -8.851670 -2.426180 10.501677 -12.614258 6.110679 -15.235386 -25.217084 0.884093 120.763827 -35.020996 -73.493378 -4.959479 2.331301 0.272560 1.027050 -1.034900 0.253800 -22.788259 15.809462 -1.102591 -17.616760 31.934266 -8.599083 -32.835158 18.513670 -7.678839 1.437405 -1.460566 -1.011060 1.159900 1.143460 0.120540 
-2.037950 18.231150 2.555010 -4.187178 25.612128 -7.600676 -15.165604 13.850909 2.025156 10.213044 0.244120 -5.647344 -0.453351 6.708537 24.911959 -1.189634 6.655047 2.678168 -0.580010 -0.776490 -1.109480 18.211597 -11.209108 2.838366 -3.100706 2.805170 -17.271782 8.041669 -6.655433 20.542381 0.294217 -4.480640 3.081418 0.075190 1.881190 0.182630 -4.258843 -1.365055 -7.014295 13.175958 -7.378405 20.417734 -12.801270 -2.274770 22.072256 6.092123 -5.525744 -7.361233 -9.643450 1.931470 27.978757 0.284030 -8.131070 -1.713630 11.773964 -13.068120 5.336324 -12.671593 -26.213127 -0.301645 112.108723 -36.736059 -65.079863 -4.973986 2.279121 0.250040 1.051610 -1.028200 0.245490 -22.553278 15.895373 -0.555228 -16.640669 31.269862 -9.564026 -39.122367 21.671366 -10.225752 1.409419 -1.502956 -0.992890 1.134330 1.136210 0.119450 
-2.032410 18.224630 2.531350 -4.179072 25.019715 -7.542744 -15.174256 13.892131 2.050760 10.769973 0.137802 -4.841696 -0.955133 6.994271 25.244658 -1.134456 6.830831 2.606539 -0.604250 -0.806500 -1.088960 18.203327 -11.145275 2.825072 -3.154552 2.794633 -17.897418 8.136202 -6.825321 21.176665 0.292293 -4.510257 3.051141 0.045370 1.864030 0.207850 -4.198006 -1.549653 -7.036972 12.712513 -7.252253 20.543984 -11.233595 -2.813489 21.878122 5.103818 -4.823492 -7.244004 -8.776915 2.112950 29.153606 -0.514550 -7.283550 -0.899670 13.138752 -13.806970 4.434031 -9.537295 -27.113231 -1.660733 100.355113 -38.243494 -54.424241 -4.976490 2.222534 0.241250 1.065410 -1.013230 0.216710 -22.004655 16.059441 0.226100 -15.439604 30.381052 -10.235286 -45.679358 25.061143 -13.204708 1.382953 -1.490711 -0.975620 1.097010 1.142310 0.109170 
-2.018710 18.217660 2.510040 -4.117081 24.659219 -7.292790 -15.170087 13.912164 2.071521 11.081355 -0.047562 -4.120710 -1.243778 7.196799 25.751298 -1.118145 7.006443 2.525685 -0.617840 -0.850430 -1.045540 18.209541 -11.100466 2.809663 -3.297256 2.745226 -18.708333 8.161400 -6.989996 21.740725 0.293388 -4.524399 3.021497 0.015470 1.833090 0.233610 -4.190487 -1.675458 -7.052004 12.519160 -7.208381 20.362709 -9.932710 -3.437779 21.491926 4.047453 -4.145116 -7.098332 -7.990535 2.391109 30.597728 -1.237840 -6.309580 -0.330320 14.436570 -14.168434 3.502701 -6.949329 -28.039143 -2.265460 87.976213 -39.372006 -44.531630 -4.965477 2.204696 0.265180 1.070670 -0.999490 0.176920 -21.274459 15.769856 0.856363 -13.843320 29.931486 -10.434590 -52.622703 28.386295 -16.722187 1.333334 -1.445242 -0.974180 1.054850 1.153840 0.073250 
-2.008550 18.202920 2.488760 -3.923062 24.348995 -7.123193 -15.156801 13.911049 2.081339 11.216866 -0.175761 -3.119944 -1.369937 7.337130 26.132331 -1.079642 7.130292 2.460673 -0.633050 -0.865390 -1.025770 18.226035 -11.086256 2.793410 -3.543040 2.665779 -19.562058 8.187756 -7.190443 22.562642 0.292207 -4.581158 2.974054 -0.000470 1.798260 0.248530 -4.218972 -1.714971 -7.060305 12.341340 -7.145665 20.277679 -9.014210 -4.001165 21.092880 3.038315 -3.392334 -6.890644 -6.955069 2.579725 31.675387 -1.717590 -5.332690 0.212650 15.817464 -14.149794 2.395543 -4.119579 -28.996229 -2.511071 74.893884 -39.784331 -35.127630 -4.948570 2.265956 0.258450 1.074650 -0.986110 0.142540 -20.707260 15.065193 1.444213 -11.841479 29.498543 -10.108557 -59.526340 31.421452 -20.699298 1.298984 -1.401963 -0.958110 1.008960 1.158840 0.055930 
